<?xml version="1.0" standalone="no"?>
<!DOCTYPE svg PUBLIC "-//W3C//DTD SVG 20010904//EN"
 "http://www.w3.org/TR/2001/REC-SVG-20010904/DTD/svg10.dtd">
<svg version="1.0" xmlns="http://www.w3.org/2000/svg"
 width="256.000000pt" height="256.000000pt" viewBox="0 0 256.000000 256.000000"
 preserveAspectRatio="xMidYMid meet">
<metadata>
Created by potrace 1.14, written by Peter Selinger 2001-2017
</metadata>
<g transform="translate(0.000000,256.000000) scale(0.100000,-0.100000)"
fill="#000000" stroke="none">
<path d="M1179 2455 c-2 -2 -24 -6 -49 -9 -84 -10 -145 -25 -235 -56 -484
-170 -801 -628 -789 -1139 4 -169 49 -353 122 -496 113 -223 316 -423 538
-530 107 -51 107 -51 206 -79 223 -64 479 -53 707 29 511 185 845 732 765
1257 -18 124 -21 137 -48 216 -101 297 -329 557 -605 691 -67 32 -225 86 -281
95 -19 3 -46 9 -60 12 -30 6 -266 15 -271 9z m301 -216 c25 -6 50 -12 55 -13
51 -13 79 -23 133 -48 34 -15 65 -28 69 -28 16 0 175 -114 224 -162 156 -150
247 -314 290 -522 26 -126 22 -306 -11 -431 -75 -288 -304 -551 -581 -667
-139 -58 -215 -73 -374 -73 -156 0 -197 6 -303 41 -318 106 -566 368 -647 683
-25 99 -27 114 -31 236 -4 137 16 258 63 378 l28 72 3 -73 3 -73 37 3 37 3 0
-260 0 -260 -37 -3 -38 -3 0 -85 0 -84 325 0 325 0 0 -79 0 -80 -37 -3 -38 -3
0 -80 0 -80 398 -1 397 -2 0 117 0 116 -82 0 -83 0 -3 -33 -3 -32 -179 0 -178
0 -1 280 0 280 80 0 79 0 0 -45 0 -45 84 0 84 0 0 175 0 175 -84 0 -84 0 0
-44 c0 -43 -1 -45 -32 -48 -18 -2 -54 -1 -80 0 l-46 4 0 204 0 204 163 0 164
0 3 -32 3 -32 65 -1 c102 -2 96 -9 96 118 l-1 112 -380 0 -380 0 -1 -82 -1
-83 39 0 38 0 0 -405 0 -405 -190 0 -190 0 0 260 0 260 28 1 c15 1 33 1 40 0
9 -1 12 21 12 84 l0 85 -171 0 -171 0 28 48 c141 242 387 412 677 468 81 15
292 11 367 -7z"/>
<path d="M1988 1138 c-2 -7 -3 -31 -3 -53 l0 -40 -354 -5 -353 -5 0 -65 c0
-36 1 -73 1 -82 1 -17 29 -18 441 -18 l440 0 0 140 0 140 -84 0 c-58 0 -85 -4
-88 -12z"/>
</g>
</svg>
